solid COMSOL mesh mesh1
facet normal 5.16871118030374e-17 4.67369089842179e-17 1
outer loop
vertex 0.253181993961334 -0.00318197929300368 0.00100000004749745
vertex 0.257706373929977 -0.00354597880505025 0.00100000004749745
vertex 0.25450000166893 -5.51091040236343e-19 0.00100000004749745
endloop
endfacet
facet normal 0 -0 1
outer loop
vertex 0.25450000166893 -5.51091040236343e-19 0.00100000004749745
vertex 0.256658613681793 0.000787660537753254 0.00100000004749745
vertex 0.253181993961334 0.00318198185414076 0.00100000004749745
endloop
endfacet
facet normal 0 0 1
outer loop
vertex 0.256658613681793 0.000787660537753254 0.00100000004749745
vertex 0.25450000166893 -5.51091040236343e-19 0.00100000004749745
vertex 0.257706373929977 -0.00354597880505025 0.00100000004749745
endloop
endfacet
facet normal -1.22685336282485e-12 -2.96622671086891e-13 1
outer loop
vertex 0.257706373929977 -0.00354597880505025 0.00100000004749745
vertex 0.264999985694885 -1.68051336735253e-18 0.00100000004749745
vertex 0.256658613681793 0.000787660537753254 0.00100000004749745
endloop
endfacet
facet normal -4.94753698114135e-17 -4.50757053210848e-17 1
outer loop
vertex 0.253181993961334 -0.00318197929300368 0.00100000004749745
vertex 0.25 -0.0044999998062849 0.00100000004749745
vertex 0.253431051969528 -0.00826595351099968 0.00100000004749745
endloop
endfacet
facet normal 4.46716309005751e-17 -4.0463160937032e-17 1
outer loop
vertex 0.253181993961334 -0.00318197929300368 0.00100000004749745
vertex 0.253431051969528 -0.00826595351099968 0.00100000004749745
vertex 0.257706373929977 -0.00354597880505025 0.00100000004749745
endloop
endfacet
facet normal -1.04694627533347e-12 -6.6666870591689e-13 1
outer loop
vertex 0.257706373929977 -0.00354597880505025 0.00100000004749745
vertex 0.264999985694885 -0.0149999996647239 0.00100000004749745
vertex 0.264999985694885 -1.68051336735253e-18 0.00100000004749745
endloop
endfacet
facet normal -0 0 1
outer loop
vertex 0.253431051969528 -0.00826595351099968 0.00100000004749745
vertex 0.264999985694885 -0.0149999996647239 0.00100000004749745
vertex 0.257706373929977 -0.00354597880505025 0.00100000004749745
endloop
endfacet
facet normal 0 -0 1
outer loop
vertex 0.253181993961334 0.00318198185414076 0.00100000004749745
vertex 0.255883127450943 0.00786898378282785 0.00100000004749745
vertex 0.25 0.0044999998062849 0.00100000004749745
endloop
endfacet
facet normal -0 0 1
outer loop
vertex 0.253181993961334 0.00318198185414076 0.00100000004749745
vertex 0.256658613681793 0.000787660537753254 0.00100000004749745
vertex 0.255883127450943 0.00786898378282785 0.00100000004749745
endloop
endfacet
facet normal -1.21137030528046e-12 -1.32655998273841e-13 1
outer loop
vertex 0.256658613681793 0.000787660537753254 0.00100000004749745
vertex 0.264999985694885 -1.68051336735253e-18 0.00100000004749745
vertex 0.255883127450943 0.00786898378282785 0.00100000004749745
endloop
endfacet
facet normal -5.85554869053633e-17 -2.31543751864966e-17 1
outer loop
vertex 0.25 0.0044999998062849 0.00100000004749745
vertex 0.248910382390022 0.00725554535165429 0.00100000004749745
vertex 0.246818020939827 0.00318197929300368 0.00100000004749745
endloop
endfacet
facet normal 0 -0 1
outer loop
vertex 0.25 0.0044999998062849 0.00100000004749745
vertex 0.255883127450943 0.00786898378282785 0.00100000004749745
vertex 0.248910382390022 0.00725554535165429 0.00100000004749745
endloop
endfacet
facet normal -5.21454027960916e-13 6.6666870591689e-13 1
outer loop
vertex 0.255883127450943 0.00786898378282785 0.00100000004749745
vertex 0.264999985694885 -1.68051336735253e-18 0.00100000004749745
vertex 0.264999985694885 0.0149999996647239 0.00100000004749745
endloop
endfacet
facet normal 0 0 1
outer loop
vertex 0.246818020939827 -0.00318198185414076 0.00100000004749745
vertex 0.245850041508675 -0.00792800355702639 0.00100000004749745
vertex 0.25 -0.0044999998062849 0.00100000004749745
endloop
endfacet
facet normal 0 0 1
outer loop
vertex 0.25 -0.0044999998062849 0.00100000004749745
vertex 0.245850041508675 -0.00792800355702639 0.00100000004749745
vertex 0.253431051969528 -0.00826595351099968 0.00100000004749745
endloop
endfacet
facet normal 6.49498792422432e-13 1.11582412146843e-12 1
outer loop
vertex 0.253431051969528 -0.00826595351099968 0.00100000004749745
vertex 0.249603465199471 -0.0149999996647239 0.00100000004749745
vertex 0.264999985694885 -0.0149999996647239 0.00100000004749745
endloop
endfacet
facet normal 6.4562823132424e-14 1.44829862078893e-12 1
outer loop
vertex 0.253431051969528 -0.00826595351099968 0.00100000004749745
vertex 0.245850041508675 -0.00792800355702639 0.00100000004749745
vertex 0.249603465199471 -0.0149999996647239 0.00100000004749745
endloop
endfacet
facet normal 0 0 1
outer loop
vertex 0.24549999833107 2.75545520118172e-19 0.00100000004749745
vertex 0.238439455628395 -0.002683229977265 0.00100000004749745
vertex 0.246818020939827 -0.00318198185414076 0.00100000004749745
endloop
endfacet
facet normal 0 0 1
outer loop
vertex 0.246818020939827 -0.00318198185414076 0.00100000004749745
vertex 0.238439455628395 -0.002683229977265 0.00100000004749745
vertex 0.245850041508675 -0.00792800355702639 0.00100000004749745
endloop
endfacet
facet normal 8.48096635347595e-17 3.30171060559562e-17 1
outer loop
vertex 0.246818020939827 0.00318197929300368 0.00100000004749745
vertex 0.243083342909813 0.00620756018906832 0.00100000004749745
vertex 0.24549999833107 2.75545520118172e-19 0.00100000004749745
endloop
endfacet
facet normal 0 0 1
outer loop
vertex 0.24549999833107 2.75545520118172e-19 0.00100000004749745
vertex 0.243083342909813 0.00620756018906832 0.00100000004749745
vertex 0.238439455628395 -0.002683229977265 0.00100000004749745
endloop
endfacet
facet normal 1.05479424734802e-17 -5.86490046366961e-17 1
outer loop
vertex 0.246818020939827 0.00318197929300368 0.00100000004749745
vertex 0.248910382390022 0.00725554535165429 0.00100000004749745
vertex 0.243083342909813 0.00620756018906832 0.00100000004749745
endloop
endfacet
facet normal 6.37876958285016e-13 -8.15513130116019e-13 1
outer loop
vertex 0.255883127450943 0.00786898378282785 0.00100000004749745
vertex 0.264999985694885 0.0149999996647239 0.00100000004749745
vertex 0.249323293566704 0.0149999996647239 0.00100000004749745
endloop
endfacet
facet normal 2.34472868638341e-13 -1.30372351369451e-12 1
outer loop
vertex 0.248910382390022 0.00725554535165429 0.00100000004749745
vertex 0.249323293566704 0.0149999996647239 0.00100000004749745
vertex 0.243083342909813 0.00620756018906832 0.00100000004749745
endloop
endfacet
facet normal 1.14132661654942e-13 -1.29730753049839e-12 1
outer loop
vertex 0.248910382390022 0.00725554535165429 0.00100000004749745
vertex 0.255883127450943 0.00786898378282785 0.00100000004749745
vertex 0.249323293566704 0.0149999996647239 0.00100000004749745
endloop
endfacet
facet normal -2.38690585065994e-28 1.4140321942871e-12 1
outer loop
vertex 0.245850041508675 -0.00792800355702639 0.00100000004749745
vertex 0.234999418258667 -0.0149999996647239 0.00100000004749745
vertex 0.249603465199471 -0.0149999996647239 0.00100000004749745
endloop
endfacet
facet normal 4.7977979011557e-13 6.77902395676555e-13 1
outer loop
vertex 0.238439455628395 -0.002683229977265 0.00100000004749745
vertex 0.234999418258667 -0.0149999996647239 0.00100000004749745
vertex 0.245850041508675 -0.00792800355702639 0.00100000004749745
endloop
endfacet
facet normal 6.03635861456432e-14 7.95044260461231e-13 1
outer loop
vertex 0.238439455628395 -0.002683229977265 0.00100000004749745
vertex 0.228025287389755 -0.00189253594726324 0.00100000004749745
vertex 0.234999418258667 -0.0149999996647239 0.00100000004749745
endloop
endfacet
facet normal 1.46212230007914e-17 -1.13732992208099e-12 1
outer loop
vertex 0.243083342909813 0.00620756018906832 0.00100000004749745
vertex 0.249323293566704 0.0149999996647239 0.00100000004749745
vertex 0.234492763876915 0.0149999996647239 0.00100000004749745
endloop
endfacet
facet normal -4.36763052482671e-14 -5.75257343930075e-13 1
outer loop
vertex 0.228025287389755 -0.00189253594726324 0.00100000004749745
vertex 0.238439455628395 -0.002683229977265 0.00100000004749745
vertex 0.234492763876915 0.0149999996647239 0.00100000004749745
endloop
endfacet
facet normal 7.58549419024174e-13 -3.9620937824017e-13 1
outer loop
vertex 0.243083342909813 0.00620756018906832 0.00100000004749745
vertex 0.234492763876915 0.0149999996647239 0.00100000004749745
vertex 0.238439455628395 -0.002683229977265 0.00100000004749745
endloop
endfacet
facet normal 0 7.62926397404606e-13 1
outer loop
vertex 0.228025287389755 -0.00189253594726324 0.00100000004749745
vertex 0.212415650486946 -0.0149999996647239 0.00100000004749745
vertex 0.234999418258667 -0.0149999996647239 0.00100000004749745
endloop
endfacet
facet normal 4.60677567687255e-29 -5.91979210876753e-13 1
outer loop
vertex 0.234492763876915 0.0149999996647239 0.00100000004749745
vertex 0.212201237678528 0.0149999996647239 0.00100000004749745
vertex 0.228025287389755 -0.00189253594726324 0.00100000004749745
endloop
endfacet
facet normal 6.36809940716965e-13 4.55122915130881e-15 1
outer loop
vertex 0.228025287389755 -0.00189253594726324 0.00100000004749745
vertex 0.212201237678528 0.0149999996647239 0.00100000004749745
vertex 0.212415650486946 -0.0149999996647239 0.00100000004749745
endloop
endfacet
facet normal -2.67268656208366e-13 -1.91014738748496e-15 1
outer loop
vertex 0.212415650486946 -0.0149999996647239 0.00100000004749745
vertex 0.212201237678528 0.0149999996647239 0.00100000004749745
vertex 0.174999997019768 -0.0149999996647239 0.00100000004749745
endloop
endfacet
facet normal 0 -0 1
outer loop
vertex 0.174999997019768 -0.0149999996647239 0.00100000004749745
vertex 0.174999997019768 0.0149999996647239 0.00100000004749745
vertex 0.143726661801338 -1.30347752929083e-05 0.00100000004749745
endloop
endfacet
facet normal -2.68809036444925e-13 0 1
outer loop
vertex 0.174999997019768 0.0149999996647239 0.00100000004749745
vertex 0.174999997019768 -0.0149999996647239 0.00100000004749745
vertex 0.212201237678528 0.0149999996647239 0.00100000004749745
endloop
endfacet
facet normal 1.61271820550701e-13 3.36526298364351e-13 1
outer loop
vertex 0.143726661801338 -1.30347752929083e-05 0.00100000004749745
vertex 0.131249994039536 -0.0237499997019768 0.00100000004749745
vertex 0.174999997019768 -0.0149999996647239 0.00100000004749745
endloop
endfacet
facet normal 5.94235699448458e-17 0 1
outer loop
vertex 0.0750000029802322 0.0109999999403954 0.00100000004749745
vertex 0.0750000029802322 0.00100000004749745 0.00100000004749745
vertex 0.0859471932053566 0.0100592598319054 0.00100000004749745
endloop
endfacet
facet normal 5.34411615268459e-17 7.22913090133677e-18 1
outer loop
vertex 0.0750000029802322 0.00100000004749745 0.00100000004749745
vertex 0.088528648018837 -0.0090240640565753 0.00100000004749745
vertex 0.0859471932053566 0.0100592598319054 0.00100000004749745
endloop
endfacet
facet normal -1.53283581574154e-13 2.34400389723111e-13 1
outer loop
vertex 0.112133577466011 0.00641212519258261 0.00100000004749745
vertex 0.088528648018837 -0.0090240640565753 0.00100000004749745
vertex 0.131249994039536 -0.0237499997019768 0.00100000004749745
endloop
endfacet
facet normal 7.74052385230962e-14 3.80608386604461e-13 1
outer loop
vertex 0.143726661801338 -1.30347752929083e-05 0.00100000004749745
vertex 0.112133577466011 0.00641212519258261 0.00100000004749745
vertex 0.131249994039536 -0.0237499997019768 0.00100000004749745
endloop
endfacet
facet normal 0 0 1
outer loop
vertex 0.0859471932053566 0.0100592598319054 0.00100000004749745
vertex 0.088528648018837 -0.0090240640565753 0.00100000004749745
vertex 0.112133577466011 0.00641212519258261 0.00100000004749745
endloop
endfacet
facet normal 1.613543147835e-13 -3.36113813647829e-13 1
outer loop
vertex 0.143726661801338 -1.30347752929083e-05 0.00100000004749745
vertex 0.174999997019768 0.0149999996647239 0.00100000004749745
vertex 0.131249994039536 0.0237499997019768 0.00100000004749745
endloop
endfacet
facet normal -9.58169158707563e-14 -4.7114027089401e-13 1
outer loop
vertex 0.131249994039536 0.0237499997019768 0.00100000004749745
vertex 0.112133577466011 0.00641212519258261 0.00100000004749745
vertex 0.143726661801338 -1.30347752929083e-05 0.00100000004749745
endloop
endfacet
facet normal 4.80847270004792e-17 -0 1
outer loop
vertex 0.0750000029802322 -0.00899999961256981 0.00100000004749745
vertex 0.088528648018837 -0.0090240640565753 0.00100000004749745
vertex 0.0750000029802322 0.00100000004749745 0.00100000004749745
endloop
endfacet
facet normal 4.80847270004792e-17 0 1
outer loop
vertex 0.0750000029802322 -0.00899999961256981 0.00100000004749745
vertex 0.0750000029802322 -0.0189999993890524 0.00100000004749745
vertex 0.088528648018837 -0.0090240640565753 0.00100000004749745
endloop
endfacet
facet normal -8.59489346013986e-14 4.29744673006993e-13 1
outer loop
vertex 0.0874999985098839 -0.0324999988079071 0.00100000004749745
vertex 0.131249994039536 -0.0237499997019768 0.00100000004749745
vertex 0.088528648018837 -0.0090240640565753 0.00100000004749745
endloop
endfacet
facet normal -3.24552206941095e-13 4.40199553241108e-13 1
outer loop
vertex 0.0750000029802322 -0.0189999993890524 0.00100000004749745
vertex 0.0874999985098839 -0.0324999988079071 0.00100000004749745
vertex 0.088528648018837 -0.0090240640565753 0.00100000004749745
endloop
endfacet
facet normal -5.61629894062843e-17 0 1
outer loop
vertex 0.0750000029802322 0.00100000004749745 0.00100000004749745
vertex 0.0634172633290291 0.0059807444922626 0.00100000004749745
vertex 0.0750000029802322 -0.00899999961256981 0.00100000004749745
endloop
endfacet
facet normal -5.61629894062843e-17 0 1
outer loop
vertex 0.0750000029802322 0.00100000004749745 0.00100000004749745
vertex 0.0750000029802322 0.0109999999403954 0.00100000004749745
vertex 0.0634172633290291 0.0059807444922626 0.00100000004749745
endloop
endfacet
facet normal -5.61629894062843e-17 0 1
outer loop
vertex 0.0750000029802322 0.0109999999403954 0.00100000004749745
vertex 0.0750000029802322 0.0209999997168779 0.00100000004749745
vertex 0.0634172633290291 0.0059807444922626 0.00100000004749745
endloop
endfacet
facet normal 5.94235699448458e-17 -0 1
outer loop
vertex 0.0750000029802322 0.0109999999403954 0.00100000004749745
vertex 0.0859471932053566 0.0100592598319054 0.00100000004749745
vertex 0.0750000029802322 0.0209999997168779 0.00100000004749745
endloop
endfacet
facet normal -9.45191800803998e-14 -4.7257109250104e-13 1
outer loop
vertex 0.112133577466011 0.00641212519258261 0.00100000004749745
vertex 0.131249994039536 0.0237499997019768 0.00100000004749745
vertex 0.0874999985098839 0.0324999988079071 0.00100000004749745
endloop
endfacet
facet normal -6.14716543184506e-14 -4.41365856623105e-13 1
outer loop
vertex 0.0859471932053566 0.0100592598319054 0.00100000004749745
vertex 0.112133577466011 0.00641212519258261 0.00100000004749745
vertex 0.0874999985098839 0.0324999988079071 0.00100000004749745
endloop
endfacet
facet normal -4.16494611151993e-13 -4.16799732748385e-13 1
outer loop
vertex 0.0750000029802322 0.0209999997168779 0.00100000004749745
vertex 0.0859471932053566 0.0100592598319054 0.00100000004749745
vertex 0.0874999985098839 0.0324999988079071 0.00100000004749745
endloop
endfacet
facet normal -2.33492490126467e-17 0 1
outer loop
vertex 0.0750000029802322 -0.00899999961256981 0.00100000004749745
vertex 0.0471395216882229 -0.0123682077974081 0.00100000004749745
vertex 0.0750000029802322 -0.0189999993890524 0.00100000004749745
endloop
endfacet
facet normal -2.61542681006508e-17 2.32019992830837e-17 1
outer loop
vertex 0.0634172633290291 0.0059807444922626 0.00100000004749745
vertex 0.0471395216882229 -0.0123682077974081 0.00100000004749745
vertex 0.0750000029802322 -0.00899999961256981 0.00100000004749745
endloop
endfacet
facet normal -1.24999145691314e-13 6.24970940884401e-13 1
outer loop
vertex 0.0750000029802322 -0.0189999993890524 0.00100000004749745
vertex 0.0437499992549419 -0.0412500016391277 0.00100000004749745
vertex 0.0874999985098839 -0.0324999988079071 0.00100000004749745
endloop
endfacet
facet normal 8.01549988492176e-14 3.36833073369056e-13 1
outer loop
vertex 0.0471395216882229 -0.0123682077974081 0.00100000004749745
vertex 0.0437499992549419 -0.0412500016391277 0.00100000004749745
vertex 0.0750000029802322 -0.0189999993890524 0.00100000004749745
endloop
endfacet
facet normal -1.4284828474178e-13 -7.14241437261426e-13 1
outer loop
vertex 0.0750000029802322 0.0209999997168779 0.00100000004749745
vertex 0.0874999985098839 0.0324999988079071 0.00100000004749745
vertex 0.0437499992549419 0.0412500016391277 0.00100000004749745
endloop
endfacet
facet normal 2.13339383051819e-13 -1.64569082645137e-13 1
outer loop
vertex 0.0750000029802322 0.0209999997168779 0.00100000004749745
vertex 0.0437499992549419 0.0412500016391277 0.00100000004749745
vertex 0.0634172633290291 0.0059807444922626 0.00100000004749745
endloop
endfacet
facet normal 1.96250811825352e-13 -1.74098216854275e-13 1
outer loop
vertex 0.0634172633290291 0.0059807444922626 0.00100000004749745
vertex 0.0437499992549419 0.0412500016391277 0.00100000004749745
vertex 0.0471395216882229 -0.0123682077974081 0.00100000004749745
endloop
endfacet
facet normal -7.96423270756942e-14 -1.91539031814056e-13 1
outer loop
vertex 0.0149999996647239 0.00100000004749745 0.00100000004749745
vertex 0.0471395216882229 -0.0123682077974081 0.00100000004749745
vertex 0.0437499992549419 0.0412500016391277 0.00100000004749745
endloop
endfacet
facet normal -3.04958152914231e-13 3.82029341971721e-13 1
outer loop
vertex 0.0437499992549419 -0.0412500016391277 0.00100000004749745
vertex 0.0471395216882229 -0.0123682077974081 0.00100000004749745
vertex 0 -0.0500000007450581 0.00100000004749745
endloop
endfacet
facet normal 2.40457268166102e-17 -7.07227264177834e-18 1
outer loop
vertex 0.0149999996647239 0.00100000004749745 0.00100000004749745
vertex 0 -0.0500000007450581 0.00100000004749745
vertex 0.0471395216882229 -0.0123682077974081 0.00100000004749745
endloop
endfacet
facet normal -2.43457868882163e-13 -7.4527921811382e-14 1
outer loop
vertex 0.0437499992549419 0.0412500016391277 0.00100000004749745
vertex 0 0.0500000007450581 0.00100000004749745
vertex 0.0149999996647239 0.00100000004749745 0.00100000004749745
endloop
endfacet
facet normal 1.41669089385977e-17 4.33680868994202e-18 1
outer loop
vertex 0 7.58941520739853e-18 0.00100000004749745
vertex 0.0149999996647239 0.00100000004749745 0.00100000004749745
vertex 0 0.0500000007450581 0.00100000004749745
endloop
endfacet
facet normal 1.47451495458029e-17 -4.33680868994202e-18 1
outer loop
vertex 0 7.58941520739853e-18 0.00100000004749745
vertex 0 -0.0500000007450581 0.00100000004749745
vertex 0.0149999996647239 0.00100000004749745 0.00100000004749745
endloop
endfacet
facet normal -2.76143062409584e-12 -6.66668673390824e-12 1
outer loop
vertex 0.25 -0.00300000002607703 0.00100000004749745
vertex 0.246818020939827 -0.00318198185414076 0.00100000004749745
vertex 0.25 -0.0044999998062849 0.00100000004749745
endloop
endfacet
facet normal -2.97269500681985e-12 -2.97269500681985e-12 1
outer loop
vertex 0.246818020939827 -0.00318198185414076 0.00100000004749745
vertex 0.25 -0.00300000002607703 0.00100000004749745
vertex 0.246999993920326 3.67394026824229e-19 0.00100000004749745
endloop
endfacet
facet normal -6.66668673390824e-12 -2.76143365986192e-12 1
outer loop
vertex 0.246999993920326 3.67394026824229e-19 0.00100000004749745
vertex 0.24549999833107 2.75545520118172e-19 0.00100000004749745
vertex 0.246818020939827 -0.00318198185414076 0.00100000004749745
endloop
endfacet
facet normal -2.76150174775835e-12 6.66668673390824e-12 1
outer loop
vertex 0.25 0.00300000002607703 0.00100000004749745
vertex 0.25 0.0044999998062849 0.00100000004749745
vertex 0.246818020939827 0.00318197929300368 0.00100000004749745
endloop
endfacet
facet normal -2.97275940842889e-12 2.97275940842889e-12 1
outer loop
vertex 0.246818020939827 0.00318197929300368 0.00100000004749745
vertex 0.246999993920326 3.67394026824229e-19 0.00100000004749745
vertex 0.25 0.00300000002607703 0.00100000004749745
endloop
endfacet
facet normal -6.66668673390824e-12 2.76149871199227e-12 1
outer loop
vertex 0.246999993920326 3.67394026824229e-19 0.00100000004749745
vertex 0.246818020939827 0.00318197929300368 0.00100000004749745
vertex 0.24549999833107 2.75545520118172e-19 0.00100000004749745
endloop
endfacet
facet normal 1.39092117608894e-32 6.81464012624543e-17 1
outer loop
vertex 0.252999991178513 -2.44929368449082e-19 0.00100000004749745
vertex 0.253181993961334 -0.00318197929300368 0.00100000004749745
vertex 0.25450000166893 -5.51091040236343e-19 0.00100000004749745
endloop
endfacet
facet normal 3.15295359265555e-12 1.80389869166263e-13 1
outer loop
vertex 0.253181993961334 -0.00318197929300368 0.00100000004749745
vertex 0.252999991178513 -2.44929368449082e-19 0.00100000004749745
vertex 0.25 -0.00300000002607703 0.00100000004749745
endloop
endfacet
facet normal 2.76136557196549e-12 -6.66668673390824e-12 1
outer loop
vertex 0.25 -0.00300000002607703 0.00100000004749745
vertex 0.25 -0.0044999998062849 0.00100000004749745
vertex 0.253181993961334 -0.00318197929300368 0.00100000004749745
endloop
endfacet
facet normal 3.15302037950937e-12 -1.8032297389222e-13 1
outer loop
vertex 0.253181993961334 0.00318198185414076 0.00100000004749745
vertex 0.25 0.00300000002607703 0.00100000004749745
vertex 0.252999991178513 -2.44929368449082e-19 0.00100000004749745
endloop
endfacet
facet normal -0 0 1
outer loop
vertex 0.252999991178513 -2.44929368449082e-19 0.00100000004749745
vertex 0.25450000166893 -5.51091040236343e-19 0.00100000004749745
vertex 0.253181993961334 0.00318198185414076 0.00100000004749745
endloop
endfacet
facet normal 2.76143062409584e-12 6.66668673390824e-12 1
outer loop
vertex 0.25 0.00300000002607703 0.00100000004749745
vertex 0.253181993961334 0.00318198185414076 0.00100000004749745
vertex 0.25 0.0044999998062849 0.00100000004749745
endloop
endfacet
endsolid COMSOL mesh mesh1
