solid COMSOL rendering object fin
facet normal 0 0 1
outer loop
vertex 0.264999985694885 0.0149999996647239 0.00100000004749745
vertex 0.252583116292953 0.00368476961739361 0.00100000004749745
vertex 0.253361463546753 0.00299175688996911 0.00100000004749745
endloop
endfacet
facet normal 0 0 1
outer loop
vertex 0.248355746269226 0.00418884819373488 0.00100000004749745
vertex 0.264999985694885 0.0149999996647239 0.00100000004749745
vertex 0.174999997019768 0.0149999996647239 0.00100000004749745
endloop
endfacet
facet normal 0 0 1
outer loop
vertex 0 -0.0500000007450581 0.00100000004749745
vertex 0.246315225958824 0.00258311280049384 0.00100000004749745
vertex 0.247008249163628 0.00336145656183362 0.00100000004749745
endloop
endfacet
facet normal 0 0 1
outer loop
vertex 0.264999985694885 0.0149999996647239 0.00100000004749745
vertex 0.251140028238297 0.004353201482445 0.00100000004749745
vertex 0.252583116292953 0.00368476961739361 0.00100000004749745
endloop
endfacet
facet normal 0 0 1
outer loop
vertex 0.174999997019768 0.0149999996647239 0.00100000004749745
vertex 0 -0.0500000007450581 0.00100000004749745
vertex 0.248355746269226 0.00418884819373488 0.00100000004749745
endloop
endfacet
facet normal 0 0 1
outer loop
vertex 0 -0.0500000007450581 0.00100000004749745
vertex 0.245646804571152 0.00114001694601029 0.00100000004749745
vertex 0.246315225958824 0.00258311280049384 0.00100000004749745
endloop
endfacet
facet normal 0 0 1
outer loop
vertex 0.245646804571152 0.00114001694601029 0.00100000004749745
vertex 0 -0.0500000007450581 0.00100000004749745
vertex 0.174999997019768 -0.0149999996647239 0.00100000004749745
endloop
endfacet
facet normal 0 0 1
outer loop
vertex 0.174999997019768 -0.0149999996647239 0.00100000004749745
vertex 0.247416883707047 -0.00368476961739361 0.00100000004749745
vertex 0.246638536453247 -0.00299175688996911 0.00100000004749745
endloop
endfacet
facet normal 0 0 1
outer loop
vertex 0.264999985694885 0.0149999996647239 0.00100000004749745
vertex 0.25 0.0044999998062849 0.00100000004749745
vertex 0.251140028238297 0.004353201482445 0.00100000004749745
endloop
endfacet
facet normal 0 0 1
outer loop
vertex 0.248355746269226 0.00418884819373488 0.00100000004749745
vertex 0.25 0.0044999998062849 0.00100000004749745
vertex 0.264999985694885 0.0149999996647239 0.00100000004749745
endloop
endfacet
facet normal 0 0 1
outer loop
vertex 0.174999997019768 -0.0149999996647239 0.00100000004749745
vertex 0.24549999833107 2.75545520118172e-19 0.00100000004749745
vertex 0.245646804571152 0.00114001694601029 0.00100000004749745
endloop
endfacet
facet normal 0 0 1
outer loop
vertex 0.174999997019768 -0.0149999996647239 0.00100000004749745
vertex 0.248859986662865 -0.004353201482445 0.00100000004749745
vertex 0.247416883707047 -0.00368476961739361 0.00100000004749745
endloop
endfacet
facet normal 0 0 1
outer loop
vertex 0.264999985694885 -0.0149999996647239 0.00100000004749745
vertex 0.25 -0.0044999998062849 0.00100000004749745
vertex 0.248859986662865 -0.004353201482445 0.00100000004749745
endloop
endfacet
facet normal 0 0 1
outer loop
vertex 0.174999997019768 0.0149999996647239 0.00100000004749745
vertex 0 0.0500000007450581 0.00100000004749745
vertex 0 -0.0500000007450581 0.00100000004749745
endloop
endfacet
facet normal 0 0 1
outer loop
vertex 0.174999997019768 -0.0149999996647239 0.00100000004749745
vertex 0.245811149477959 -0.00164424779359251 0.00100000004749745
vertex 0.24549999833107 2.75545520118172e-19 0.00100000004749745
endloop
endfacet
facet normal 0 0 1
outer loop
vertex 0.247008249163628 0.00336145656183362 0.00100000004749745
vertex 0.248355746269226 0.00418884819373488 0.00100000004749745
vertex 0 -0.0500000007450581 0.00100000004749745
endloop
endfacet
facet normal 0 0 1
outer loop
vertex 0.248859986662865 -0.004353201482445 0.00100000004749745
vertex 0.174999997019768 -0.0149999996647239 0.00100000004749745
vertex 0.264999985694885 -0.0149999996647239 0.00100000004749745
endloop
endfacet
facet normal 0 0 1
outer loop
vertex 0.264999985694885 -0.0149999996647239 0.00100000004749745
vertex 0.253684759140015 -0.00258311280049384 0.00100000004749745
vertex 0.252991765737534 -0.00336145656183362 0.00100000004749745
endloop
endfacet
facet normal 0 0 1
outer loop
vertex 0.264999985694885 -0.0149999996647239 0.00100000004749745
vertex 0.251644253730774 -0.00418884819373488 0.00100000004749745
vertex 0.25 -0.0044999998062849 0.00100000004749745
endloop
endfacet
facet normal 0 0 1
outer loop
vertex 0.264999985694885 -0.0149999996647239 0.00100000004749745
vertex 0.254353195428848 -0.00114001694601029 0.00100000004749745
vertex 0.253684759140015 -0.00258311280049384 0.00100000004749745
endloop
endfacet
facet normal 0 0 1
outer loop
vertex 0.264999985694885 -0.0149999996647239 0.00100000004749745
vertex 0.264999985694885 0.0149999996647239 0.00100000004749745
vertex 0.25450000166893 -5.51091040236343e-19 0.00100000004749745
endloop
endfacet
facet normal 0 0 1
outer loop
vertex 0.246638536453247 -0.00299175688996911 0.00100000004749745
vertex 0.245811149477959 -0.00164424779359251 0.00100000004749745
vertex 0.174999997019768 -0.0149999996647239 0.00100000004749745
endloop
endfacet
facet normal 0 0 1
outer loop
vertex 0.25450000166893 -5.51091040236343e-19 0.00100000004749745
vertex 0.254353195428848 -0.00114001694601029 0.00100000004749745
vertex 0.264999985694885 -0.0149999996647239 0.00100000004749745
endloop
endfacet
facet normal 0 0 1
outer loop
vertex 0.252991765737534 -0.00336145656183362 0.00100000004749745
vertex 0.251644253730774 -0.00418884819373488 0.00100000004749745
vertex 0.264999985694885 -0.0149999996647239 0.00100000004749745
endloop
endfacet
facet normal 0 0 1
outer loop
vertex 0.253361463546753 0.00299175688996911 0.00100000004749745
vertex 0.25418883562088 0.00164424779359251 0.00100000004749745
vertex 0.264999985694885 0.0149999996647239 0.00100000004749745
endloop
endfacet
facet normal 0 0 1
outer loop
vertex 0.25418883562088 0.00164424779359251 0.00100000004749745
vertex 0.25450000166893 -5.51091040236343e-19 0.00100000004749745
vertex 0.264999985694885 0.0149999996647239 0.00100000004749745
endloop
endfacet
facet normal 0 0 1
outer loop
vertex 0.247416883707047 -0.00368476961739361 0.00100000004749745
vertex 0.248859986662865 -0.004353201482445 0.00100000004749745
vertex 0.248851954936981 -0.0027716385666281 0.00100000004749745
endloop
endfacet
facet normal 0 0 1
outer loop
vertex 0.246638536453247 -0.00299175688996911 0.00100000004749745
vertex 0.247878685593605 -0.00212132022716105 0.00100000004749745
vertex 0.247228354215622 -0.00114805030170828 0.00100000004749745
endloop
endfacet
facet normal 0 0 1
outer loop
vertex 0.247878685593605 -0.00212132022716105 0.00100000004749745
vertex 0.246638536453247 -0.00299175688996911 0.00100000004749745
vertex 0.247416883707047 -0.00368476961739361 0.00100000004749745
endloop
endfacet
facet normal 0 0 1
outer loop
vertex 0.245811149477959 -0.00164424779359251 0.00100000004749745
vertex 0.247228354215622 -0.00114805030170828 0.00100000004749745
vertex 0.246999993920326 3.67394026824229e-19 0.00100000004749745
endloop
endfacet
facet normal 0 0 1
outer loop
vertex 0.248851954936981 -0.0027716385666281 0.00100000004749745
vertex 0.247878685593605 -0.00212132022716105 0.00100000004749745
vertex 0.247416883707047 -0.00368476961739361 0.00100000004749745
endloop
endfacet
facet normal 0 0 1
outer loop
vertex 0.247228354215622 -0.00114805030170828 0.00100000004749745
vertex 0.245811149477959 -0.00164424779359251 0.00100000004749745
vertex 0.246638536453247 -0.00299175688996911 0.00100000004749745
endloop
endfacet
facet normal 0 0 1
outer loop
vertex 0.248859986662865 -0.004353201482445 0.00100000004749745
vertex 0.25 -0.0044999998062849 0.00100000004749745
vertex 0.25 -0.00300000002607703 0.00100000004749745
endloop
endfacet
facet normal 0 0 1
outer loop
vertex 0.25 -0.00300000002607703 0.00100000004749745
vertex 0.248851954936981 -0.0027716385666281 0.00100000004749745
vertex 0.248859986662865 -0.004353201482445 0.00100000004749745
endloop
endfacet
facet normal 0 0 1
outer loop
vertex 0.246999993920326 3.67394026824229e-19 0.00100000004749745
vertex 0.24549999833107 2.75545520118172e-19 0.00100000004749745
vertex 0.245811149477959 -0.00164424779359251 0.00100000004749745
endloop
endfacet
facet normal 0 0 1
outer loop
vertex 0.246315225958824 0.00258311280049384 0.00100000004749745
vertex 0.245646804571152 0.00114001694601029 0.00100000004749745
vertex 0.247228354215622 0.00114805030170828 0.00100000004749745
endloop
endfacet
facet normal 0 0 1
outer loop
vertex 0.247008249163628 0.00336145656183362 0.00100000004749745
vertex 0.247878685593605 0.00212132022716105 0.00100000004749745
vertex 0.248851954936981 0.0027716385666281 0.00100000004749745
endloop
endfacet
facet normal 0 0 1
outer loop
vertex 0.247878685593605 0.00212132022716105 0.00100000004749745
vertex 0.247008249163628 0.00336145656183362 0.00100000004749745
vertex 0.246315225958824 0.00258311280049384 0.00100000004749745
endloop
endfacet
facet normal 0 0 1
outer loop
vertex 0.247228354215622 0.00114805030170828 0.00100000004749745
vertex 0.247878685593605 0.00212132022716105 0.00100000004749745
vertex 0.246315225958824 0.00258311280049384 0.00100000004749745
endloop
endfacet
facet normal 0 0 1
outer loop
vertex 0.245646804571152 0.00114001694601029 0.00100000004749745
vertex 0.24549999833107 2.75545520118172e-19 0.00100000004749745
vertex 0.246999993920326 3.67394026824229e-19 0.00100000004749745
endloop
endfacet
facet normal 0 0 1
outer loop
vertex 0.248355746269226 0.00418884819373488 0.00100000004749745
vertex 0.248851954936981 0.0027716385666281 0.00100000004749745
vertex 0.25 0.00300000002607703 0.00100000004749745
endloop
endfacet
facet normal 0 0 1
outer loop
vertex 0.246999993920326 3.67394026824229e-19 0.00100000004749745
vertex 0.247228354215622 0.00114805030170828 0.00100000004749745
vertex 0.245646804571152 0.00114001694601029 0.00100000004749745
endloop
endfacet
facet normal 0 0 1
outer loop
vertex 0.248851954936981 0.0027716385666281 0.00100000004749745
vertex 0.248355746269226 0.00418884819373488 0.00100000004749745
vertex 0.247008249163628 0.00336145656183362 0.00100000004749745
endloop
endfacet
facet normal 0 0 1
outer loop
vertex 0.25 0.00300000002607703 0.00100000004749745
vertex 0.25 0.0044999998062849 0.00100000004749745
vertex 0.248355746269226 0.00418884819373488 0.00100000004749745
endloop
endfacet
facet normal 0 0 1
outer loop
vertex 0.25 -0.0044999998062849 0.00100000004749745
vertex 0.251644253730774 -0.00418884819373488 0.00100000004749745
vertex 0.250927060842514 -0.0028531695716083 0.00100000004749745
endloop
endfacet
facet normal 0 0 1
outer loop
vertex 0.251644253730774 -0.00418884819373488 0.00100000004749745
vertex 0.252991765737534 -0.00336145656183362 0.00100000004749745
vertex 0.251763343811035 -0.00242705107666552 0.00100000004749745
endloop
endfacet
facet normal 0 0 1
outer loop
vertex 0.252991765737534 -0.00336145656183362 0.00100000004749745
vertex 0.253684759140015 -0.00258311280049384 0.00100000004749745
vertex 0.252427041530609 -0.0017633558018133 0.00100000004749745
endloop
endfacet
facet normal 0 0 1
outer loop
vertex 0.253684759140015 -0.00258311280049384 0.00100000004749745
vertex 0.254353195428848 -0.00114001694601029 0.00100000004749745
vertex 0.252853155136108 -0.000927051005419344 0.00100000004749745
endloop
endfacet
facet normal 0 0 1
outer loop
vertex 0.251763343811035 -0.00242705107666552 0.00100000004749745
vertex 0.250927060842514 -0.0028531695716083 0.00100000004749745
vertex 0.251644253730774 -0.00418884819373488 0.00100000004749745
endloop
endfacet
facet normal 0 0 1
outer loop
vertex 0.252853155136108 -0.000927051005419344 0.00100000004749745
vertex 0.252427041530609 -0.0017633558018133 0.00100000004749745
vertex 0.253684759140015 -0.00258311280049384 0.00100000004749745
endloop
endfacet
facet normal 0 0 1
outer loop
vertex 0.252427041530609 -0.0017633558018133 0.00100000004749745
vertex 0.251763343811035 -0.00242705107666552 0.00100000004749745
vertex 0.252991765737534 -0.00336145656183362 0.00100000004749745
endloop
endfacet
facet normal 0 0 1
outer loop
vertex 0.254353195428848 -0.00114001694601029 0.00100000004749745
vertex 0.25450000166893 -5.51091040236343e-19 0.00100000004749745
vertex 0.252999991178513 -2.44929368449082e-19 0.00100000004749745
endloop
endfacet
facet normal 0 0 1
outer loop
vertex 0.252999991178513 -2.44929368449082e-19 0.00100000004749745
vertex 0.252853155136108 -0.000927051005419344 0.00100000004749745
vertex 0.254353195428848 -0.00114001694601029 0.00100000004749745
endloop
endfacet
facet normal 0 0 1
outer loop
vertex 0.250927060842514 -0.0028531695716083 0.00100000004749745
vertex 0.25 -0.00300000002607703 0.00100000004749745
vertex 0.25 -0.0044999998062849 0.00100000004749745
endloop
endfacet
facet normal 0 0 1
outer loop
vertex 0.25418883562088 0.00164424779359251 0.00100000004749745
vertex 0.253361463546753 0.00299175688996911 0.00100000004749745
vertex 0.252427041530609 0.0017633558018133 0.00100000004749745
endloop
endfacet
facet normal 0 0 1
outer loop
vertex 0.253361463546753 0.00299175688996911 0.00100000004749745
vertex 0.252583116292953 0.00368476961739361 0.00100000004749745
vertex 0.251763343811035 0.00242705107666552 0.00100000004749745
endloop
endfacet
facet normal 0 0 1
outer loop
vertex 0.252583116292953 0.00368476961739361 0.00100000004749745
vertex 0.251140028238297 0.004353201482445 0.00100000004749745
vertex 0.250927060842514 0.0028531695716083 0.00100000004749745
endloop
endfacet
facet normal 0 0 1
outer loop
vertex 0.251140028238297 0.004353201482445 0.00100000004749745
vertex 0.25 0.0044999998062849 0.00100000004749745
vertex 0.25 0.00300000002607703 0.00100000004749745
endloop
endfacet
facet normal 0 0 1
outer loop
vertex 0.251763343811035 0.00242705107666552 0.00100000004749745
vertex 0.252427041530609 0.0017633558018133 0.00100000004749745
vertex 0.253361463546753 0.00299175688996911 0.00100000004749745
endloop
endfacet
facet normal 0 0 1
outer loop
vertex 0.25 0.00300000002607703 0.00100000004749745
vertex 0.250927060842514 0.0028531695716083 0.00100000004749745
vertex 0.251140028238297 0.004353201482445 0.00100000004749745
endloop
endfacet
facet normal 0 0 1
outer loop
vertex 0.25450000166893 -5.51091040236343e-19 0.00100000004749745
vertex 0.25418883562088 0.00164424779359251 0.00100000004749745
vertex 0.252853155136108 0.000927051005419344 0.00100000004749745
endloop
endfacet
facet normal 0 0 1
outer loop
vertex 0.250927060842514 0.0028531695716083 0.00100000004749745
vertex 0.251763343811035 0.00242705107666552 0.00100000004749745
vertex 0.252583116292953 0.00368476961739361 0.00100000004749745
endloop
endfacet
facet normal 0 0 1
outer loop
vertex 0.252427041530609 0.0017633558018133 0.00100000004749745
vertex 0.252853155136108 0.000927051005419344 0.00100000004749745
vertex 0.25418883562088 0.00164424779359251 0.00100000004749745
endloop
endfacet
facet normal 0 0 1
outer loop
vertex 0.252853155136108 0.000927051005419344 0.00100000004749745
vertex 0.252999991178513 -2.44929368449082e-19 0.00100000004749745
vertex 0.25450000166893 -5.51091040236343e-19 0.00100000004749745
endloop
endfacet
endsolid COMSOL rendering object fin
